# xmcd CD database file generated by OrangeCD 5.1
#
# Track frame offsets:
#	150
#	19700
#	36130
#	56197
#	73532
#	83972
#	102982
#	122297
#	140115
#	159662
#
# Disc length: 2374 seconds
#
# Revision: 1
# Processed by: cddbd v1.4PL0 Copyright (c) Steve Scherf et al.
# Submitted via: OrangeCD 5.1
#
DISCID=8609440a
DTITLE=Rui Veloso - fora de moda
DYEAR=1982
DGENRE=
TTITLE0=Estrela de Rock and Roll (Gravação Original)
TTITLE1=Balada da Fiandeira
TTITLE2=Sayago Blues
TTITLE3=Esta Mulher é a Minha Ruína
TTITLE4=Ó Clotilde
TTITLE5=A Minha Namorada Até Fala Estrangeiro
TTITLE6=Sexta-Feira Nem Que Chova
TTITLE7=Bocejo
TTITLE8=Bucólica
TTITLE9=A Gente Não Lê
EXTD=
EXTT0=
EXTT1=
EXTT2=
EXTT3=
EXTT4=
EXTT5=
EXTT6=
EXTT7=
EXTT8=
EXTT9=
PLAYORDER=
